<?xml version="1.0" encoding="UTF-8"?>
<svg xmlns="http://www.w3.org/2000/svg" version="1.1" viewBox="0 0 425.2 425.2">
  <!-- Generator: Adobe Illustrator 29.8.4, SVG Export Plug-In . SVG Version: 2.1.1 Build 6)  -->
  <defs>
    <style>
      .st0 {
        fill: #222121;
      }

      .st0, .st1, .st2, .st3 {
        stroke: #1d1d1b;
        stroke-miterlimit: 10;
      }

      .st1 {
        fill: #e30613;
      }

      .st2 {
        fill: #fff;
      }

      .st4 {
        display: none;
      }

      .st3 {
        fill: none;
      }
    </style>
  </defs>
  <g id="Ebene_1" class="st4">
    <rect class="st2" x="21.26" y="21.26" width="382.68" height="382.68"/>
  </g>
  <g id="Ebene_2">
    <path class="st3" d="M340.93,38.52"/>
    <path class="st3" d="M285.26,21.26"/>
    <path class="st0" d="M211.39,403.94q-5.78-22.49-10.58-68.67c-5.57-53.45-.35-94.21,2.51-114.14,3.59-25.08,10.19-26.58,20.09-32.3,14.98-8.66,53.66-1.52,101-11.66,71.04-15.2,74.03-46.57,73.65-46.45,0,0,14.07-19.53.23-60.86-13.84-41.34-67.95-48.35-67.95-48.35l-309.11-.25v29.12c4.11-.32,10.14.71,17.44.41,18.92-.76,64.1-2.21,78.9,1.59,36.31,9.32,33.47,37.37,37.32,56.25,14.75,72.41.89,281.02-.92,295.3"/>
    <path class="st1" d="M213.37,57.29c3.41-4.4,8.31-3.89,21.61-2.68,43.73,3.98,48.73-4.39,77.53.68,21.41,3.77,43.4,9.72,52.11,24.33,14.96,25.09-8.43,61.09-47.4,70.13-10.04,2.33-52.19-6.26-94.95,4.89-34.56,9.01-27.28-73.64-8.9-97.35Z"/>
  </g>
</svg>